<?xml version="1.0" standalone="no"?>
<!DOCTYPE svg PUBLIC "-//W3C//DTD SVG 20010904//EN"
 "http://www.w3.org/TR/2001/REC-SVG-20010904/DTD/svg10.dtd">
<svg version="1.0" xmlns="http://www.w3.org/2000/svg"
 width="700.000000pt" height="700.000000pt" viewBox="0 0 700.000000 700.000000"
 preserveAspectRatio="xMidYMid meet">
<metadata>
Created by potrace 1.14, written by Peter Selinger 2001-2017
</metadata>
<g transform="translate(0.000000,700.000000) scale(0.100000,-0.100000)"
fill="#000000" stroke="none">
<path d="M2769 6838 c-221 -38 -360 -179 -372 -379 -4 -64 13 -168 38 -231
l15 -38 -71 -92 c-100 -131 -171 -268 -139 -268 5 0 10 11 10 24 0 14 21 52
48 88 61 80 103 141 135 198 18 32 31 44 44 42 62 -12 182 -10 199 3 17 12 11
14 -56 14 -41 1 -96 2 -122 3 l-47 2 -15 66 c-22 92 -16 241 11 300 60 133
204 241 343 257 74 8 79 9 84 14 7 7 -56 5 -105 -3z"/>
<path d="M2890 6838 c0 -4 17 -8 38 -8 78 0 199 -55 269 -123 47 -45 97 -134
107 -187 14 -81 19 -140 18 -224 -1 -83 -3 -93 -31 -133 -17 -24 -31 -46 -31
-48 0 -13 32 -3 50 15 l20 20 0 -20 c0 -12 -9 -30 -20 -42 -11 -12 -20 -25
-20 -30 0 -16 29 -8 43 13 14 19 15 18 27 -31 11 -46 10 -53 -6 -71 -13 -14
-27 -19 -46 -17 -22 4 -25 2 -17 -9 14 -16 75 -17 85 -2 4 8 14 -1 25 -22 20
-37 23 -50 12 -47 -14 4 -96 -13 -90 -18 11 -11 80 -14 92 -4 9 7 16 6 25 -5
18 -22 6 -42 -30 -50 -27 -6 -39 -2 -73 26 l-42 33 29 -39 c17 -22 35 -43 40
-47 21 -15 65 -8 85 13 18 20 20 20 30 2 18 -31 12 -5 -7 29 -43 77 -72 167
-96 295 -3 12 -7 68 -10 125 -13 235 -25 306 -63 381 -47 93 -120 155 -235
199 -56 21 -178 39 -178 26z"/>
<path d="M3166 6477 c-17 -17 -26 -34 -22 -44 4 -9 -1 -24 -10 -34 -9 -10 -13
-23 -9 -29 10 -16 35 7 35 33 0 11 9 31 21 43 11 12 19 30 17 41 -3 16 -7 15
-32 -10z"/>
<path d="M2971 6454 c-39 -32 -50 -84 -26 -120 15 -23 21 -25 52 -19 75 14
122 70 102 122 -5 15 -16 31 -22 35 -25 16 -76 8 -106 -18z"/>
<path d="M3065 6319 c-53 -34 -100 -44 -144 -29 -43 14 -73 4 -91 -31 -11 -19
-10 -20 17 -6 36 19 69 23 111 13 48 -11 96 0 126 31 44 43 33 56 -19 22z"/>
<path d="M2633 6126 c-129 -85 -214 -160 -325 -288 -44 -50 -58 -58 -58 -33 0
8 -4 15 -9 15 -6 0 -6 -12 0 -30 13 -35 15 -34 89 36 30 29 79 69 108 88 30
20 66 49 81 65 15 16 48 39 73 51 45 21 86 56 76 65 -2 3 -22 -4 -44 -15 -39
-19 -39 -19 15 30 30 28 52 50 50 50 -2 0 -28 -15 -56 -34z"/>
<path d="M2555 5991 c-2 -4 8 -8 23 -9 38 -3 78 -47 92 -100 24 -96 1 -300
-50 -452 -27 -79 -79 -185 -121 -247 -33 -47 -159 -195 -206 -241 -38 -38
-129 -163 -160 -222 -65 -121 -99 -247 -100 -370 l-1 -75 10 64 c8 51 12 61
20 47 12 -21 67 -46 102 -46 13 0 34 9 47 19 l24 19 -55 -4 c-66 -5 -108 10
-116 42 -3 13 6 60 21 109 25 77 29 84 44 72 29 -26 76 -44 101 -40 29 4 51
23 29 24 -60 3 -117 23 -125 43 -6 15 38 110 56 121 6 3 13 -2 16 -12 11 -37
22 -48 53 -57 22 -6 35 -6 43 2 15 15 8 21 -33 26 -19 2 -37 4 -41 5 -5 0 -8
5 -8 10 0 5 8 7 19 4 32 -8 33 15 1 32 -16 8 -30 18 -30 21 0 3 10 20 23 39
17 25 27 31 37 24 8 -5 25 -9 38 -9 12 0 38 -8 57 -19 42 -22 98 -18 167 11
43 18 93 58 73 58 -5 0 0 7 11 15 16 13 12 13 -21 -1 -22 -9 -74 -18 -115 -20
-41 -2 -87 -6 -102 -9 -19 -4 -30 0 -37 12 -10 17 -10 17 -11 1 0 -11 -8 -18
-19 -18 -34 0 -32 16 8 61 31 36 41 41 53 32 23 -20 84 -23 105 -6 10 8 13 12
7 9 -14 -7 -74 4 -74 13 0 7 62 33 93 38 9 2 17 -2 17 -7 0 -6 17 -10 38 -10
44 0 99 36 121 78 l14 27 -30 -28 c-26 -25 -120 -63 -130 -54 -2 2 15 12 37
22 21 10 47 26 56 37 15 16 10 15 -37 -6 -46 -21 -101 -33 -156 -35 -7 -1 -10
-8 -7 -16 5 -11 2 -13 -9 -9 -13 5 -14 9 -4 25 6 10 16 19 22 19 10 0 85 67
85 76 0 3 -9 0 -21 -6 -30 -17 -31 -8 -3 25 14 17 23 24 19 18 -3 -7 -2 -13 4
-13 18 0 47 39 59 78 l11 37 -34 -40 -34 -40 32 62 c23 45 34 58 40 47 11 -19
42 -18 72 2 34 22 32 35 -4 21 -30 -11 -61 -5 -61 13 0 5 10 10 23 10 39 0 52
16 18 23 -23 5 -29 10 -24 23 4 11 8 12 13 4 14 -23 54 -37 78 -27 25 11 31
33 6 23 -10 -4 -14 -1 -12 6 3 7 18 16 34 20 17 4 39 18 50 30 10 12 13 18 5
14 -7 -5 -36 -11 -65 -15 -39 -5 -50 -10 -48 -22 2 -12 -4 -15 -23 -12 -24 5
-24 6 -10 40 8 20 15 37 15 40 0 2 5 1 10 -2 15 -9 57 20 65 45 5 15 12 19 29
14 14 -3 28 1 39 13 15 18 15 19 -6 18 -13 -1 -28 -5 -35 -9 -8 -5 -10 -1 -6
11 3 10 -15 -3 -40 -29 -51 -52 -52 -51 -32 15 7 25 12 48 9 51 -3 2 5 9 16
15 25 14 54 68 47 87 -3 7 -1 16 4 19 19 12 10 26 -9 15 -33 -17 -38 -12 -44
54 -11 114 -49 175 -120 188 -15 3 -29 2 -32 -1z m182 -296 c-19 -19 -27 -19
-27 -1 0 8 8 16 18 18 24 6 27 1 9 -17z m-301 -840 c9 -8 29 -15 46 -15 17 0
29 -3 25 -6 -8 -8 -104 -7 -118 1 -6 5 -3 12 8 21 23 17 22 17 39 -1z m124 -5
c-8 -5 -19 -10 -25 -10 -5 0 -3 5 5 10 8 5 20 10 25 10 6 0 3 -5 -5 -10z"/>
<path d="M3321 5736 c-28 -10 -31 -14 -17 -19 31 -12 55 -7 66 13 13 24 3 25
-49 6z"/>
<path d="M3467 5727 c-24 -18 -32 -20 -57 -10 -17 6 -30 7 -30 2 0 -14 36 -29
69 -29 24 0 34 -7 46 -30 18 -35 55 -59 55 -36 0 15 -4 19 -47 54 -20 15 -21
19 -9 35 13 17 18 14 57 -45 66 -98 182 -208 264 -248 39 -19 72 -36 74 -37 9
-6 -23 -33 -39 -33 -10 0 -24 -8 -31 -19 -23 -30 -121 -80 -144 -72 -19 8 -19
8 0 19 31 17 12 24 -36 13 -63 -15 -115 -13 -152 4 l-32 16 30 -25 c31 -27 99
-42 139 -32 14 3 36 1 50 -5 37 -17 112 6 139 43 11 15 28 28 37 28 18 0 50
30 50 47 0 8 19 6 58 -4 31 -8 64 -17 72 -19 115 -27 220 -68 220 -85 0 -16
-112 -76 -170 -91 -7 -3 -10 -7 -5 -10 6 -3 41 2 80 12 54 14 75 24 96 50 l27
32 75 -72 c82 -78 157 -169 157 -191 0 -23 -49 -89 -83 -111 l-32 -20 29 7
c39 8 76 34 96 68 13 20 19 24 23 14 7 -20 -54 -108 -89 -128 -52 -30 -223
-53 -252 -35 -6 4 -28 -8 -48 -26 -19 -18 -59 -45 -87 -61 -49 -26 -50 -27
-17 -21 60 11 119 41 132 69 11 24 14 25 62 18 48 -6 76 -7 137 -4 37 2 150
80 163 114 12 31 21 34 30 10 12 -29 -66 -123 -129 -156 -38 -21 -19 -22 28
-2 46 19 107 72 107 93 0 70 51 -136 85 -345 18 -110 -102 -263 -182 -232 -33
12 -29 -7 5 -25 61 -31 140 40 178 159 12 39 13 39 14 10 1 -16 3 -39 6 -50 2
-11 6 -60 9 -110 3 -49 8 -121 11 -160 3 -38 6 -80 7 -92 0 -13 5 -23 9 -23 7
0 9 29 11 145 1 20 -12 175 -18 230 -2 17 -7 57 -10 90 -3 33 -7 67 -10 75 -2
8 -7 35 -10 60 -15 111 -60 291 -86 349 -32 70 -83 142 -146 206 -165 167
-209 192 -513 295 -52 17 -122 48 -155 68 -64 39 -187 157 -245 234 -19 26
-37 47 -40 47 -3 0 -17 -10 -33 -22z"/>
<path d="M3338 5662 c-33 -19 -37 -36 -8 -28 11 3 29 9 40 12 22 6 28 34 8 34
-7 0 -25 -8 -40 -18z"/>
<path d="M3410 5672 c0 -28 54 -93 82 -99 16 -3 31 -10 34 -14 3 -5 14 -9 25
-9 26 0 17 15 -40 66 -34 30 -41 34 -31 15 l12 -24 -31 22 c-17 12 -35 30 -41
39 -5 10 -10 12 -10 4z"/>
<path d="M2805 5640 c-3 -5 -17 -10 -30 -10 -52 0 -74 -24 -30 -32 17 -4 34 3
57 23 18 16 28 28 21 29 -6 0 -15 -4 -18 -10z"/>
<path d="M3380 5610 c-14 -11 -42 -23 -63 -26 -51 -9 -27 -24 30 -19 23 2 45
-1 48 -6 4 -5 -1 -9 -9 -9 -9 0 -30 -9 -48 -20 l-33 -20 30 0 c17 0 40 7 52
15 20 14 23 14 33 -5 6 -11 19 -24 30 -30 33 -17 25 12 -14 52 -26 27 -33 41
-29 61 6 32 5 32 -27 7z"/>
<path d="M3484 5532 c20 -38 41 -54 74 -56 15 -1 40 -11 56 -24 29 -23 70 -29
81 -13 5 9 -12 18 -40 22 -28 5 -140 62 -155 79 -25 29 -33 24 -16 -8z"/>
<path d="M3590 5544 c0 -11 27 -32 45 -36 28 -5 28 17 0 30 -28 13 -45 15 -45
6z"/>
<path d="M2738 5491 c-47 -16 -58 -33 -25 -39 8 -2 30 10 49 27 18 17 31 30
28 30 -3 -1 -26 -8 -52 -18z"/>
<path d="M3390 5492 c0 -23 29 -69 59 -95 l30 -25 -24 -6 c-14 -4 -37 -3 -52
0 -22 5 -26 4 -16 -6 6 -7 31 -15 56 -17 37 -4 49 -1 67 17 l22 22 -52 31
c-28 16 -61 44 -71 61 -10 17 -19 25 -19 18z"/>
<path d="M3490 5450 c0 -16 57 -69 71 -67 29 5 22 17 -23 46 -27 17 -48 26
-48 21z"/>
<path d="M3630 5424 c1 -30 70 -74 116 -74 38 0 16 23 -38 39 -24 7 -51 20
-60 29 -10 8 -18 11 -18 6z"/>
<path d="M2736 5359 c-16 -16 -29 -38 -30 -48 0 -10 -16 -35 -33 -56 -32 -37
-42 -65 -25 -65 14 0 40 33 56 72 9 20 27 49 41 64 14 15 25 35 25 45 0 23 2
23 -34 -12z"/>
<path d="M3590 5350 c-19 -11 -46 -20 -60 -20 -24 -1 -24 -2 -4 -11 28 -14
100 6 114 31 14 26 -3 26 -50 0z"/>
<path d="M3895 5264 c-33 -26 -62 -48 -64 -50 -2 -2 10 0 26 5 47 14 92 40
103 60 23 45 9 41 -65 -15z"/>
<path d="M4054 5249 c-16 -17 -38 -35 -49 -41 -16 -9 -18 -8 -7 3 6 7 12 24
12 37 0 24 -1 23 -43 -14 -24 -22 -52 -45 -63 -52 -19 -12 -19 -12 1 -8 11 2
31 7 45 11 19 5 21 4 10 -4 -28 -19 18 -25 48 -5 37 24 47 35 66 72 21 40 17
40 -20 1z"/>
<path d="M4141 5275 c-1 -5 -15 -18 -31 -27 -34 -20 -39 -38 -10 -38 22 0 55
43 47 62 -3 7 -6 9 -6 3z"/>
<path d="M2593 5207 c-37 -37 -42 -58 -13 -50 11 3 20 7 20 8 0 1 7 19 15 39
8 20 14 36 13 36 -2 0 -18 -15 -35 -33z"/>
<path d="M3800 5220 c0 -13 -118 -70 -145 -70 -18 0 -18 1 3 16 12 8 22 21 22
29 0 12 -6 11 -37 -2 -20 -8 -53 -15 -72 -15 -60 0 1 -23 91 -35 46 -6 135 22
148 47 13 24 13 40 0 40 -5 0 -10 -5 -10 -10z"/>
<path d="M2666 5171 c-32 -21 -51 -49 -41 -59 9 -10 34 10 56 46 24 37 24 38
-15 13z"/>
<path d="M4297 5175 c-15 -37 -167 -104 -232 -100 -19 1 -32 -2 -29 -7 10 -15
110 -8 171 12 62 22 96 49 108 88 7 24 -9 31 -18 7z"/>
<path d="M4035 5150 c-8 -13 -53 -35 -87 -44 -22 -5 -28 -3 -28 11 0 11 -14 1
-42 -30 -43 -46 -98 -77 -138 -77 -17 0 -14 6 20 40 22 22 40 46 40 53 0 7 -5
5 -10 -5 -16 -27 -72 -56 -117 -61 -48 -6 -59 8 -14 18 16 3 37 16 47 27 19
21 19 21 -3 9 -21 -11 -65 -19 -110 -20 -28 -1 -30 -17 -3 -26 11 -4 18 -10
15 -14 -9 -16 43 -34 78 -27 20 4 38 3 41 -2 15 -24 157 21 170 53 3 8 18 15
33 15 32 0 97 41 113 70 11 20 6 29 -5 10z"/>
<path d="M4346 5131 c-18 -50 -100 -110 -183 -131 -34 -9 -33 -9 17 -4 103 9
185 70 178 130 -3 29 -4 29 -12 5z"/>
<path d="M2538 5100 c-50 -31 -61 -50 -30 -50 17 0 37 18 71 63 18 23 14 22
-41 -13z"/>
<path d="M3961 5036 c-15 -27 -33 -37 -111 -62 -41 -13 -50 -19 -36 -24 17 -5
15 -8 -10 -18 -16 -6 -51 -18 -79 -26 l-50 -16 67 4 c43 2 77 10 96 22 16 11
50 32 75 49 28 18 51 41 57 59 13 37 7 44 -9 12z"/>
<path d="M4040 5033 c-33 -6 -47 -20 -33 -34 11 -11 65 10 78 31 6 10 -1 11
-45 3z"/>
<path d="M4076 4983 c-45 -52 -114 -87 -157 -81 -18 3 -26 1 -21 -4 18 -18 92
-11 140 14 46 24 87 75 80 102 -2 9 -17 -2 -42 -31z"/>
<path d="M4402 5002 c-37 -31 -40 -42 -13 -42 19 0 55 44 49 60 -2 5 -18 -3
-36 -18z"/>
<path d="M2578 4954 c-33 -17 -66 -25 -112 -27 -65 -2 -66 -2 -45 -19 12 -10
33 -18 48 -18 34 0 121 41 145 69 23 26 23 26 -36 -5z"/>
<path d="M4165 4935 c-16 -19 -60 -51 -97 -71 -38 -19 -68 -39 -68 -43 0 -13
67 4 98 25 15 10 32 17 37 15 22 -7 118 -1 158 10 42 11 107 53 107 69 0 4
-37 -7 -82 -25 -46 -18 -105 -37 -132 -41 -52 -7 -54 -3 -16 41 15 17 34 55
27 55 -1 0 -15 -16 -32 -35z"/>
<path d="M3795 4818 c-22 -5 -56 -6 -75 -3 -51 9 -24 -14 31 -26 46 -11 93 2
103 27 6 16 -2 16 -59 2z"/>
<path d="M3989 4783 c-18 -22 -83 -49 -138 -58 -30 -5 -39 -10 -30 -16 42 -27
139 11 177 69 17 26 11 30 -9 5z"/>
<path d="M2300 4745 c18 -22 77 -30 108 -15 l27 13 -25 7 c-14 4 -34 4 -45 0
-11 -4 -33 -4 -48 1 -24 7 -27 6 -17 -6z"/>
<path d="M2338 4694 c-9 -8 41 -78 60 -85 9 -3 28 -2 42 2 14 4 18 7 10 8 -9
1 -26 9 -39 18 -23 16 -23 17 -5 23 16 6 13 10 -20 24 -44 18 -41 18 -48 10z"/>
<path d="M3916 4665 c-32 -26 -79 -39 -143 -38 -33 0 -40 -3 -32 -13 16 -20
59 -26 98 -13 41 14 97 53 105 75 7 18 7 18 -28 -11z"/>
<path d="M4168 4650 c-4 -14 -75 -39 -110 -40 -33 0 -37 -16 -8 -25 27 -9 20
-18 -42 -51 -37 -19 -68 -28 -105 -28 -36 -1 -47 -4 -35 -10 50 -28 177 6 223
61 14 17 38 38 53 48 29 19 53 55 37 55 -5 0 -11 -5 -13 -10z"/>
<path d="M4264 4610 c-27 -22 -62 -45 -79 -49 l-30 -9 33 -1 c18 -1 42 4 53 9
18 10 19 7 20 -57 1 -72 4 -113 14 -180 l6 -41 -75 -36 c-41 -20 -89 -39 -105
-42 -17 -4 -28 -10 -26 -14 7 -12 -25 -21 -103 -29 l-67 -7 49 -8 c58 -10 146
-2 178 15 23 13 23 14 -12 19 -35 6 -35 6 13 13 27 4 71 18 97 31 52 26 60 22
60 -27 0 -18 -14 -27 -76 -51 -42 -16 -82 -29 -90 -29 -8 0 -14 -5 -14 -10 0
-5 22 -7 53 -3 l52 5 -65 -30 c-36 -17 -77 -33 -92 -36 -16 -3 -28 -9 -28 -13
0 -8 88 5 136 20 35 12 67 46 58 62 -3 4 0 8 6 8 7 0 25 9 40 20 27 19 29 19
34 3 9 -33 15 -78 21 -153 3 -41 8 -93 11 -116 l5 -41 -53 -8 c-29 -4 -81 -8
-115 -9 -33 -1 -59 -4 -56 -8 2 -5 10 -8 17 -8 8 0 39 -12 70 -26 41 -19 69
-25 102 -22 34 2 44 0 45 -12 0 -8 2 -23 4 -32 3 -16 -6 -17 -86 -15 -85 3
-88 3 -57 -11 18 -8 59 -15 91 -16 64 -1 59 5 78 -103 13 -80 29 -99 23 -29
-4 39 -2 44 14 40 30 -8 70 13 88 48 l17 32 -32 -27 c-57 -48 -88 -34 -97 43
-3 30 -11 91 -18 136 l-13 81 42 -44 c34 -35 48 -43 77 -43 41 0 65 22 74 68
8 41 -5 40 -31 -1 -28 -45 -63 -47 -110 -6 -40 36 -50 56 -70 138 l-13 55 31
-37 c44 -49 88 -53 134 -11 22 20 23 24 8 19 -67 -24 -84 -23 -111 4 -45 44
-74 116 -81 192 -5 69 -5 71 15 60 45 -24 114 -3 142 43 12 20 11 20 -12 -2
-37 -33 -90 -40 -117 -13 -11 11 -23 33 -27 48 -3 16 -10 37 -15 48 -24 55
-38 175 -19 175 11 0 44 59 37 66 -2 3 -26 -14 -53 -36z m79 -810 c5 -19 1
-20 -66 -19 -67 2 -69 2 -25 8 27 4 53 12 60 19 17 17 25 15 31 -8z"/>
<path d="M2187 4622 c26 -19 59 -25 89 -18 40 11 16 24 -49 28 -49 3 -55 1
-40 -10z"/>
<path d="M4428 4605 c-3 -3 -22 -6 -42 -7 -45 -2 -35 -14 17 -21 45 -6 89 4
95 21 4 12 -59 18 -70 7z"/>
<path d="M4616 4557 c-14 -58 -128 -127 -213 -130 -35 -1 -43 -11 -17 -21 74
-28 207 46 235 131 6 19 9 36 6 39 -2 3 -7 -6 -11 -19z"/>
<path d="M2270 4548 c0 -27 26 -50 63 -55 43 -6 49 8 10 24 -16 7 -38 20 -50
29 -19 13 -23 14 -23 2z"/>
<path d="M4300 4542 c1 -20 51 -65 85 -76 45 -16 89 -7 120 25 l20 22 -25 -7
c-89 -24 -132 -20 -173 18 -15 14 -27 22 -27 18z"/>
<path d="M2140 4532 c0 -28 69 -48 103 -30 28 14 9 31 -29 23 -19 -3 -43 -1
-54 5 -11 6 -20 7 -20 2z"/>
<path d="M4168 4506 c-63 -22 -70 -32 -36 -45 20 -7 19 -9 -13 -20 -19 -7 -54
-15 -79 -18 -55 -6 -58 -8 -30 -23 41 -22 85 -3 157 65 38 36 66 64 63 64 -3
-1 -31 -11 -62 -23z"/>
<path d="M2130 4466 c0 -17 9 -27 30 -36 42 -17 44 -10 9 28 -36 38 -39 39
-39 8z"/>
<path d="M2240 4440 c11 -20 24 -24 70 -20 38 3 44 15 9 18 -17 1 -39 7 -49
12 -31 17 -42 13 -30 -10z"/>
<path d="M3952 4438 c-22 -14 -58 -23 -104 -26 -63 -4 -69 -6 -53 -18 40 -30
133 -6 179 45 23 25 21 25 -22 -1z"/>
<path d="M4182 4360 c-53 -44 -209 -79 -227 -50 -3 6 -1 10 4 10 6 0 11 4 11
9 0 5 -17 1 -37 -9 -21 -10 -62 -21 -91 -25 -44 -6 -51 -9 -41 -21 16 -20 53
-17 101 7 31 16 46 18 62 11 12 -5 43 -9 69 -8 26 0 47 -2 47 -6 0 -13 -150
-68 -187 -68 -31 -1 -35 -2 -20 -11 23 -14 121 -3 160 17 16 9 36 29 45 45 10
16 24 29 32 29 32 0 110 58 110 82 0 13 -13 9 -38 -12z"/>
<path d="M2280 4362 c0 -16 -84 -71 -120 -78 -18 -4 -36 -1 -45 6 -12 10 -15
10 -15 -2 0 -23 22 -38 57 -38 24 0 44 10 73 37 43 38 66 71 56 81 -3 3 -6 0
-6 -6z"/>
<path d="M2360 4333 c0 -10 9 -31 20 -48 11 -16 20 -34 20 -40 -1 -5 -8 2 -16
18 -21 39 -28 34 -20 -15 11 -66 42 -104 111 -133 59 -24 86 -30 135 -27 38 3
10 21 -40 26 -25 3 -55 5 -68 5 -22 1 -64 38 -84 74 -8 16 -7 18 11 12 24 -7
61 2 61 16 0 5 -7 9 -15 9 -39 0 -72 29 -80 70 -9 44 -35 68 -35 33z"/>
<path d="M2061 4247 c17 -38 71 -57 113 -41 30 12 16 24 -28 24 -29 0 -52 7
-70 21 l-26 21 11 -25z"/>
<path d="M2340 4255 c0 -29 -49 -113 -90 -153 -58 -57 -95 -70 -131 -49 -32
18 -39 9 -11 -15 26 -23 56 -30 86 -18 36 13 93 74 121 131 23 45 43 119 31
119 -3 0 -6 -7 -6 -15z"/>
<path d="M2023 4224 c-18 -65 -8 -255 20 -394 49 -239 100 -372 180 -474 l31
-39 -84 6 c-47 4 -96 9 -110 13 -14 3 -72 7 -130 8 -58 0 -110 4 -115 8 -6 4
-40 9 -75 13 -36 3 -87 13 -115 20 -63 17 -120 24 -132 16 -13 -8 -33 -47 -33
-63 1 -8 8 -4 19 9 17 20 24 21 117 16 54 -2 119 -12 144 -20 30 -11 108 -18
235 -24 105 -4 210 -13 235 -19 90 -23 198 1 282 63 33 25 38 21 43 -29 2 -28
11 -45 31 -61 26 -20 30 -21 46 -7 15 15 34 69 30 86 -1 4 19 22 45 39 45 31
46 32 38 8 -16 -51 -16 -94 -1 -114 15 -19 15 -18 10 12 -8 40 13 130 32 137
17 6 18 1 4 -25 -8 -13 -7 -31 0 -59 13 -50 31 -53 20 -4 -12 54 -2 101 24
108 47 13 51 9 47 -45 -3 -47 3 -70 41 -171 6 -15 22 -31 39 -37 25 -8 31 -7
44 12 8 12 15 30 15 40 0 14 4 16 19 7 11 -5 28 -10 38 -10 24 0 100 -40 129
-68 23 -22 24 -22 55 -4 18 10 35 25 37 32 4 12 2 12 -9 4 -24 -19 -78 -34
-85 -23 -3 5 -2 9 3 8 12 -3 43 12 43 20 0 4 -17 5 -37 3 -37 -4 -37 -3 -18
13 20 16 20 16 -2 12 -13 -3 -33 0 -46 6 l-23 11 22 40 c12 23 21 48 19 57 -5
31 35 8 44 -25 8 -28 10 -26 15 16 1 14 37 26 83 27 25 1 35 -5 50 -29 9 -16
20 -30 24 -30 10 0 19 27 19 55 0 20 5 23 42 23 23 1 57 -6 76 -14 19 -8 43
-14 53 -14 13 0 19 -7 19 -24 0 -61 30 -75 55 -26 26 51 54 70 102 70 49 0 49
0 21 -97 -17 -60 1 -78 30 -29 17 29 31 38 88 55 73 22 82 19 85 -26 2 -36 3
-41 12 -49 11 -11 8 65 -3 87 -8 15 -7 23 5 35 22 22 40 5 55 -54 14 -52 26
-41 16 13 -4 19 -16 41 -28 49 -18 13 -19 18 -8 31 10 12 15 13 28 3 22 -19
62 -108 63 -143 1 -29 1 -29 8 -5 9 30 -11 104 -36 133 -10 12 2 6 26 -13 43
-33 71 -80 71 -119 0 -15 -10 -20 -47 -26 -27 -5 -54 -9 -60 -11 -17 -3 -17
13 0 19 6 2 9 7 6 11 -3 3 -23 -7 -45 -23 -45 -32 -74 -44 -74 -31 0 6 5 10
10 10 6 0 10 4 10 9 0 5 -29 -5 -64 -24 -83 -43 -129 -40 -244 15 -46 22 -97
40 -114 40 -25 0 -28 3 -23 21 7 21 6 21 -26 -3 -45 -33 -69 -46 -51 -27 20
21 14 34 -7 15 -11 -10 -24 -15 -29 -12 -5 3 -22 -8 -37 -24 -32 -34 -48 -39
-38 -12 5 12 -2 9 -26 -10 -18 -16 -41 -28 -52 -28 -10 0 -19 -4 -19 -10 0
-23 87 -9 159 25 116 56 134 56 243 -1 112 -58 179 -65 293 -33 84 24 81 23
175 44 91 20 102 22 163 29 26 3 68 9 93 12 l47 6 -34 -48 c-90 -128 -208
-216 -292 -218 -40 -1 -45 -3 -30 -13 47 -35 144 -2 220 75 45 45 51 48 69 35
22 -16 60 -10 87 14 10 10 17 12 17 5 0 -7 -36 -51 -81 -99 -87 -94 -125 -143
-112 -143 5 0 14 5 21 12 7 7 12 9 12 5 0 -4 14 8 31 28 17 19 34 35 38 35 4
0 2 -28 -5 -62 -8 -35 -14 -74 -15 -88 -1 -20 -3 -18 -9 10 -7 34 -8 32 -14
-30 -6 -54 -38 -176 -62 -233 -46 -109 -129 -214 -199 -250 -16 -9 -23 -16
-15 -16 31 -1 99 38 139 80 l42 44 -5 -32 c-13 -73 -34 -137 -38 -118 -2 12
-12 -11 -23 -55 -19 -71 -24 -79 -100 -156 -126 -128 -190 -160 -237 -117 -10
9 -18 11 -18 5 0 -17 50 -52 74 -52 60 1 191 101 230 177 9 18 18 33 20 33 8
0 -24 -122 -41 -153 -37 -73 -155 -256 -183 -285 -38 -40 -26 -41 27 -3 71 51
118 138 208 384 9 27 19 46 22 44 7 -7 -56 -248 -76 -292 -11 -22 -36 -76 -56
-120 -136 -292 -185 -367 -250 -383 -16 -5 -25 -11 -20 -14 18 -11 87 20 121
53 61 59 112 171 273 604 31 84 49 170 52 245 1 25 10 71 20 102 11 32 19 81
19 110 0 35 10 79 30 129 16 42 32 95 36 118 4 23 11 44 17 48 5 3 8 2 5 -3
-3 -5 -9 -42 -12 -82 -4 -40 -9 -78 -11 -85 -2 -7 -6 -28 -9 -47 -3 -19 -17
-84 -31 -144 -15 -60 -28 -116 -30 -125 -2 -9 -22 -94 -44 -189 -23 -95 -41
-176 -40 -180 0 -4 7 7 15 23 14 29 14 29 9 -25 -3 -30 -7 -66 -10 -80 -2 -14
-7 -47 -10 -73 -11 -99 -55 -237 -114 -362 l-29 -60 5 55 c7 74 -1 61 -21 -34
-18 -88 -47 -154 -83 -188 -33 -31 -29 -43 7 -18 l29 21 -15 -38 c-57 -137
-157 -273 -200 -273 -40 0 -81 77 -86 160 -1 22 -5 40 -8 40 -4 0 -8 33 -9 73
-1 39 -3 108 -5 152 -3 44 -2 69 0 55 3 -14 12 -39 20 -57 8 -17 14 -35 14
-39 0 -20 65 -113 90 -128 29 -17 95 -22 104 -8 3 5 -8 9 -25 9 -16 0 -42 8
-57 19 -35 26 -94 144 -134 269 -29 94 -31 110 -32 260 -1 88 2 174 6 190 3
17 7 48 8 70 1 28 9 2 25 -85 23 -125 68 -296 80 -308 4 -4 4 4 1 18 -3 14 -8
44 -10 67 -3 24 -25 147 -50 275 -25 128 -47 265 -50 303 -3 39 -8 108 -11
155 -4 47 -13 112 -20 145 -14 60 -14 59 -10 -66 2 -70 9 -146 14 -170 20 -89
30 -205 21 -244 -5 -22 -11 -51 -14 -65 -42 -221 -89 -304 -177 -314 -30 -4
-40 2 -78 42 -40 41 -42 42 -25 13 22 -37 60 -68 89 -71 51 -6 69 3 120 54
l53 53 4 -61 c3 -34 5 -127 7 -207 1 -122 -2 -162 -20 -235 -33 -134 -93 -254
-141 -280 l-23 -13 26 -1 c62 -1 136 132 154 275 7 60 15 71 16 24 0 -19 2
-45 4 -59 35 -228 37 -337 10 -421 -17 -49 -65 -101 -106 -114 -28 -9 -7 -24
25 -18 37 7 76 45 91 88 8 22 15 33 15 25 14 -187 33 -301 66 -388 13 -36 22
-67 19 -70 -3 -3 -32 -8 -63 -10 -74 -5 -144 27 -195 90 -62 77 -87 141 -110
293 -3 17 -8 44 -12 60 -5 23 0 18 23 -22 40 -70 93 -141 133 -178 35 -33 34
-29 -27 65 -43 66 -133 240 -154 295 l-11 30 23 -21 c13 -12 31 -24 42 -28 14
-5 11 3 -12 28 -51 58 -82 138 -97 249 -7 56 -16 115 -20 130 -7 25 -2 23 45
-25 37 -37 47 -44 34 -23 -43 71 -65 115 -89 180 -23 59 -24 67 -8 53 10 -8
29 -19 43 -23 28 -9 29 -10 -43 72 -21 25 -43 65 -53 98 -17 61 -14 87 5 33
18 -52 55 -101 92 -123 l34 -19 -19 29 c-11 17 -32 46 -47 66 -39 49 -79 137
-79 173 l0 29 30 -41 c17 -23 32 -42 33 -42 2 0 -14 36 -36 81 -21 44 -37 83
-34 85 3 3 17 -2 31 -11 39 -26 31 -3 -19 53 -24 27 -49 61 -55 76 -9 26 -48
170 -56 211 -2 11 -6 31 -9 45 -2 14 -7 48 -10 75 l-5 50 15 -45 c38 -114 102
-180 185 -188 31 -3 50 -1 50 6 0 6 -8 9 -17 8 -43 -7 -136 64 -148 112 -3 14
-15 38 -25 52 -24 33 -64 134 -50 125 5 -3 10 -12 10 -19 0 -19 46 -58 64 -54
12 2 6 14 -25 48 -50 55 -69 96 -69 150 l0 40 28 -30 c29 -33 93 -60 124 -52
14 3 7 10 -29 27 -79 37 -113 81 -139 182 -12 48 -19 91 -15 96 4 4 47 -11 95
-33 48 -23 94 -39 104 -37 15 3 15 5 -3 12 -11 5 -52 28 -92 52 -54 33 -70 48
-66 61 3 12 -4 22 -22 30 -25 11 -26 11 -20 -9 7 -20 6 -20 -19 -4 -14 10 -23
21 -20 27 7 11 -12 40 -63 99 -21 25 -49 58 -61 74 -13 17 -21 24 -17 18 14
-29 -7 -10 -31 27 -15 22 -29 38 -31 36 -10 -10 73 -150 97 -164 14 -9 41 -34
60 -56 l35 -40 -49 34 c-57 41 -155 154 -209 243 -21 34 -35 51 -31 37 4 -14
8 -33 9 -43 3 -40 60 -115 131 -171 40 -33 72 -61 70 -64 -9 -8 -124 21 -192
49 -51 22 -85 44 -118 79 -63 66 -58 75 7 13 29 -27 63 -55 75 -62 26 -14 94
-5 71 9 -7 5 -16 7 -20 4 -4 -2 -48 23 -97 55 -50 33 -93 57 -96 54 -3 -4 -17
4 -31 17 -14 13 -27 21 -30 18 -10 -10 52 -79 117 -131 37 -30 77 -66 88 -80
12 -14 43 -38 70 -53 27 -15 51 -32 54 -39 8 -22 136 -78 178 -78 l38 0 0 -81
c0 -44 5 -100 10 -123 15 -66 38 -230 45 -328 4 -49 9 -99 11 -110 2 -10 6
-37 9 -60 9 -57 32 -145 51 -190 17 -41 48 -195 58 -290 13 -121 19 -151 36
-210 10 -33 21 -80 24 -105 3 -25 8 -65 11 -90 10 -85 20 -139 52 -270 15 -58
26 -114 25 -125 -4 -61 76 -362 119 -445 57 -112 179 -166 273 -122 l40 18 26
-29 c49 -55 133 -34 241 62 85 74 140 184 155 306 3 33 8 74 11 90 2 17 6 183
9 370 2 187 5 360 5 385 2 49 -6 140 -16 194 -5 22 1 68 14 124 12 50 23 132
25 184 2 52 11 115 20 141 9 26 18 61 21 79 3 18 12 58 20 88 12 49 16 73 30
170 2 14 9 63 15 110 6 47 20 130 30 185 25 131 28 154 35 258 7 92 25 132
100 226 27 33 54 85 68 132 4 12 18 15 68 13 157 -6 358 -5 404 1 84 11 171
41 325 113 178 83 219 100 295 125 148 49 277 70 447 73 86 1 174 -1 195 -6
21 -5 58 -11 83 -14 25 -3 60 -10 79 -16 19 -5 30 -6 25 -1 -17 16 -177 52
-259 58 -44 3 -82 7 -84 9 -10 9 157 3 189 -6 48 -13 120 -19 120 -10 0 11
-78 31 -140 35 -30 2 -75 7 -100 12 -25 5 -64 8 -87 7 -38 -1 -41 0 -32 17 15
30 1 22 -39 -18 -48 -50 -85 -55 -42 -6 52 59 30 53 -32 -9 -33 -34 -60 -38
-31 -5 11 12 24 29 28 37 8 13 7 13 -11 0 -10 -8 -25 -21 -32 -28 -8 -6 -23
-17 -35 -23 -21 -11 -21 -10 2 15 27 29 19 36 -11 9 -13 -12 -18 -13 -18 -3 0
10 -5 9 -18 -3 -10 -9 -36 -19 -57 -23 -22 -3 -65 -15 -95 -25 -30 -11 -82
-27 -115 -35 -51 -13 -135 -55 -135 -68 0 -8 76 17 123 41 27 13 51 22 54 19
3 -2 -59 -37 -138 -76 -100 -50 -149 -70 -165 -66 -13 3 -26 2 -29 -4 -3 -5 2
-10 11 -10 16 0 16 -1 -1 -14 -16 -11 -21 -11 -33 0 -19 19 -24 17 -17 -5 3
-12 0 -21 -10 -25 -9 -3 -15 -1 -14 7 3 24 -1 40 -8 33 -8 -8 -9 -12 -12 -40
0 -7 -10 -16 -20 -19 -17 -4 -18 -2 -9 19 8 17 8 30 0 46 -10 22 -11 22 -11
-8 -1 -20 -11 -40 -29 -57 -38 -36 -46 -34 -22 6 11 18 20 49 20 72 -1 39 -1
38 -24 -29 -23 -68 -37 -86 -66 -86 -11 1 -11 3 3 11 17 10 35 44 42 82 2 10
0 15 -6 12 -5 -4 -9 -12 -9 -19 0 -7 -16 -30 -36 -52 -19 -21 -28 -28 -20 -14
30 47 16 52 -25 9 -24 -26 -35 -35 -29 -21 11 22 10 23 -10 12 -19 -10 -62
-20 -95 -22 -5 0 -64 3 -130 7 -201 14 -309 11 -472 -10 -29 -3 -53 -3 -54 2
-4 37 -12 70 -21 80 -8 10 -3 13 25 13 36 0 47 -12 47 -53 1 -21 1 -21 11 -3
8 13 8 25 1 41 -10 21 -7 24 45 38 61 18 73 16 73 -13 0 -10 5 -22 10 -25 6
-4 10 8 10 28 0 83 -41 126 -128 131 -106 7 -168 20 -197 40 -46 33 -130 29
-178 -7 -32 -24 -41 -26 -74 -19 -70 16 -120 -5 -185 -77 -33 -37 -39 -40 -65
-31 -15 5 -63 12 -105 15 -63 5 -78 10 -78 23 -1 45 -64 86 -118 77 -87 -14
-99 -13 -138 11 -131 80 -163 84 -269 33 -60 -28 -114 -42 -210 -53 -45 -6
-47 -5 -30 9 20 14 20 14 0 16 -27 2 -26 2 -60 -5 -23 -5 -36 -2 -53 14 -24
22 -28 19 -12 -10 8 -15 6 -17 -10 -13 -11 3 -23 9 -26 14 -9 15 -24 10 -18
-6 9 -22 72 -58 90 -51 8 3 12 10 9 16 -4 6 7 10 27 10 27 -1 30 -2 16 -11
-20 -11 -37 -40 -43 -71 -3 -11 -6 -21 -7 -22 -2 0 -20 -10 -41 -20 -20 -11
-39 -17 -40 -15 -2 2 -10 31 -17 64 -8 33 -15 65 -17 70 -2 9 -20 83 -39 160
-9 35 -14 233 -7 251 4 10 10 10 29 2 13 -6 24 -14 24 -18 0 -4 14 -13 30 -20
23 -10 37 -10 55 -2 41 19 29 32 -28 32 -47 0 -56 4 -82 33 -20 23 -30 45 -32
77 l-4 45 29 -45 c39 -60 63 -80 105 -87 36 -5 94 3 84 13 -2 3 -17 7 -33 10
-56 9 -114 36 -137 64 -13 15 -30 55 -37 89 -7 33 -16 58 -20 56 -5 -3 -7 -98
-7 -213 l2 -207 -35 -17 c-56 -27 -86 -29 -115 -7 -35 29 -32 46 8 41 40 -5
80 24 107 79 21 40 28 79 8 44 -28 -51 -115 -114 -138 -100 -6 3 -10 1 -10 -5
0 -6 -4 -9 -9 -5 -19 11 9 -60 30 -77 32 -27 100 -24 133 7 l26 24 0 -73 c0
-72 -1 -75 -35 -105 -20 -17 -47 -34 -60 -37 -45 -11 -26 -30 25 -25 8 1 31
18 50 39 20 20 35 35 34 34 -1 -2 4 -26 13 -54 17 -60 11 -68 -52 -68 -54 0
-122 49 -125 90 -1 9 -3 11 -6 3 -13 -32 65 -118 111 -123 40 -4 64 0 79 15
14 14 17 12 35 -24 l21 -40 -76 -16 c-70 -16 -76 -16 -93 -1 -16 15 -131 261
-131 281 0 4 16 -7 35 -24 29 -25 40 -29 55 -21 23 12 46 50 30 50 -5 0 -10
-4 -10 -10 0 -25 -44 -5 -89 40 -85 86 -112 190 -110 433 0 87 -2 161 -5 164
-3 3 -9 -8 -13 -23z m4041 -635 c3 -2 -9 -5 -25 -5 -16 -1 -26 2 -23 7 5 9 39
7 48 -2z m-3046 -27 c13 -1 38 -16 55 -33 57 -58 80 -62 202 -34 42 9 75 -19
85 -73 4 -23 6 -42 4 -42 -2 0 -17 8 -33 18 -26 16 -39 17 -95 9 l-65 -10 -53
40 c-49 38 -112 76 -96 58 4 -4 -1 -20 -12 -35 -11 -16 -20 -32 -20 -37 0 -4
-12 -25 -26 -46 -25 -37 -25 -39 -10 -84 20 -59 21 -84 1 -77 -8 3 -19 23 -25
43 -5 20 -21 52 -35 71 -31 42 -27 76 16 134 35 48 37 61 7 44 -13 -6 -32 -13
-42 -15 -11 -2 -24 -7 -30 -12 -6 -5 -38 -14 -71 -21 -72 -15 -111 -33 -125
-60 -8 -15 -15 -18 -28 -12 -9 5 -28 6 -41 3 l-24 -6 27 -12 c20 -10 26 -20
26 -45 0 -57 -14 -64 -40 -21 -52 85 -20 155 77 169 27 3 80 20 118 36 78 33
167 56 205 53 14 -1 35 -3 48 -3z m1013 -34 c37 -11 48 -21 32 -31 -5 -2 -2
-2 4 -1 7 2 43 -5 81 -15 37 -10 78 -17 90 -16 17 1 22 -4 22 -22 0 -25 17
-31 26 -9 8 22 41 26 58 7 24 -26 20 -31 -21 -31 -21 0 -56 -6 -77 -14 -51
-18 -100 -12 -161 18 -27 14 -63 28 -80 32 -27 7 -29 6 -17 -9 12 -14 8 -19
-25 -41 -21 -13 -64 -32 -95 -41 -31 -9 -69 -26 -84 -38 -26 -20 -27 -20 -20
-2 5 11 14 36 21 55 12 32 19 37 75 51 34 9 69 24 78 33 16 16 15 16 -11 7
-16 -6 -44 -11 -63 -11 -38 0 -73 -15 -90 -38 -9 -12 -17 -13 -43 -4 -37 13
-73 3 -110 -31 l-24 -22 23 43 c13 23 32 51 42 62 24 26 79 35 133 21 69 -17
135 -13 135 10 0 4 -7 6 -15 3 -8 -4 -15 -1 -15 5 0 6 1 11 3 11 1 0 20 7 42
15 49 17 41 17 86 3z m-951 -88 c42 -48 52 -87 34 -129 -13 -30 -15 -31 -65
-27 -44 3 -54 8 -71 34 l-18 30 35 42 c31 37 40 58 36 83 -3 17 17 4 49 -33z
m1440 -202 c0 -4 -6 -16 -14 -25 -8 -10 -27 -33 -42 -52 -16 -19 -46 -42 -69
-52 -78 -36 -83 -22 -25 68 26 41 47 63 62 65 42 6 88 4 88 -4z m-1704 -424
c44 5 54 2 70 -16 l19 -20 -83 5 c-51 4 -93 12 -108 22 -33 22 -30 25 13 13
20 -5 60 -7 89 -4z m144 -78 c11 -14 5 -16 -58 -16 -50 0 -73 4 -82 15 -11 13
-7 15 26 15 22 0 46 4 53 9 16 11 40 1 61 -23z m1207 -618 c-3 -7 -5 -2 -5 12
0 14 2 19 5 13 2 -7 2 -19 0 -25z m-10 -40 c-3 -8 -6 -5 -6 6 -1 11 2 17 5 13
3 -3 4 -12 1 -19z m-12 -703 c11 -216 9 -285 -9 -380 -2 -11 -7 -42 -10 -70
-9 -69 -32 -162 -51 -210 -12 -30 -14 -33 -9 -10 3 17 8 39 10 49 7 35 7 136
1 143 -4 3 -7 -5 -7 -18 -1 -82 -55 -260 -120 -394 -77 -159 -162 -223 -217
-163 -25 27 -50 109 -58 188 -3 30 -10 96 -15 145 -5 50 -10 101 -10 115 l1
25 14 -26 c7 -14 24 -30 38 -36 73 -34 210 133 268 327 12 41 30 86 39 100 29
41 92 205 103 265 10 53 20 96 22 93 1 -2 6 -66 10 -143z m-2 -755 c-2 -101
-35 -194 -106 -300 -59 -88 -99 -135 -156 -182 -45 -39 -102 -39 -129 0 -10
15 -22 38 -25 52 -3 14 -13 54 -21 90 -20 86 -20 103 2 60 20 -42 61 -64 102
-55 65 14 153 122 206 254 13 32 39 81 58 109 18 27 39 71 47 98 l14 47 5 -49
c3 -27 4 -83 3 -124z"/>
<path d="M4089 1158 c-1 -40 -5 -65 -25 -141 -13 -52 -30 -96 -108 -292 l-17
-40 26 30 c43 50 92 159 111 246 25 118 35 217 23 225 -5 3 -9 -10 -10 -28z"/>
<path d="M2050 4183 c0 -16 66 -51 108 -57 32 -4 54 0 83 14 47 25 52 42 7 30
-84 -25 -114 -22 -190 18 -5 2 -8 0 -8 -5z"/>
<path d="M4553 4114 c-21 -17 -46 -26 -73 -27 -22 -1 -40 -5 -40 -9 0 -14 40
-28 64 -22 25 6 86 60 86 75 0 12 0 12 -37 -17z"/>
<path d="M2390 4094 c0 -8 11 -20 25 -26 14 -6 25 -15 25 -19 0 -16 38 -29 61
-20 l23 8 -21 12 c-12 6 -31 11 -42 11 -11 0 -25 8 -30 19 -14 25 -41 35 -41
15z"/>
<path d="M4574 3996 c-8 -20 -55 -46 -85 -46 -18 0 -19 -2 -9 -15 15 -18 39
-19 61 -2 22 17 53 67 46 74 -4 3 -9 -2 -13 -11z"/>
<path d="M2233 3983 c-10 -29 -55 -73 -75 -73 -10 0 -25 8 -33 18 -7 9 -23 28
-35 42 l-20 25 4 -27 c8 -52 41 -88 80 -88 25 0 72 47 83 84 11 36 8 51 -4 19z"/>
<path d="M4114 3973 c40 -21 142 -20 172 2 17 13 8 14 -88 12 -88 -2 -103 -4
-84 -14z"/>
<path d="M3998 3951 c32 -28 87 -37 120 -20 26 13 24 14 -43 19 -38 3 -77 9
-85 13 -8 5 -5 -1 8 -12z"/>
<path d="M4710 3910 c0 -16 0 -32 -1 -35 -39 -197 -64 -243 -161 -295 -20 -11
-50 -21 -67 -22 -36 -3 -26 -18 15 -22 55 -7 98 20 155 94 l19 25 -6 -40 c-17
-110 -17 -109 -59 -116 -22 -4 -60 -10 -85 -15 -25 -4 -62 -8 -82 -8 -21 -1
-38 -5 -38 -9 0 -5 48 -6 108 -1 161 11 235 8 378 -14 127 -21 221 7 363 105
191 132 258 158 566 214 200 36 224 38 485 24 126 -7 157 -4 239 21 23 7 23 6
8 -17 -8 -13 -18 -35 -22 -49 -6 -23 -4 -22 25 10 21 23 30 28 25 15 -19 -57
-33 -138 -29 -172 5 -50 -19 -88 -46 -73 -24 13 -25 43 -4 101 29 81 27 98 -5
44 -38 -63 -46 -99 -31 -136 10 -22 19 -29 40 -29 36 0 48 16 60 81 6 30 20
82 31 116 20 62 22 138 4 138 -6 -1 -37 -9 -70 -19 -49 -15 -79 -18 -165 -13
-58 4 -118 9 -134 12 -98 20 -227 8 -426 -40 -36 -9 -108 -24 -160 -35 -180
-38 -252 -67 -379 -152 -40 -28 -103 -64 -140 -82 -74 -35 -126 -38 -353 -22
-103 8 -116 11 -109 25 17 33 50 138 56 181 11 73 14 240 4 240 -5 0 -9 -13
-9 -30z"/>
<path d="M4170 3919 c-14 -4 -43 -8 -65 -8 -60 -2 -23 -21 41 -21 55 0 104 23
68 32 -10 2 -30 1 -44 -3z"/>
<path d="M2635 3849 c-31 -16 -50 -19 -85 -13 -89 13 -101 13 -89 -2 23 -28
74 -33 141 -15 70 19 88 27 88 42 0 14 -11 11 -55 -12z"/>
<path d="M2384 3824 c3 -9 6 -20 6 -24 0 -20 46 -50 104 -69 78 -26 106 -30
131 -21 18 7 17 9 -10 20 -16 7 -58 15 -93 18 -61 4 -64 6 -95 48 -32 43 -55
58 -43 28z"/>
<path d="M4596 3803 c-17 -52 -116 -100 -156 -75 -15 9 -17 8 -13 -9 6 -21 29
-35 53 -33 8 1 20 2 27 3 35 3 110 96 100 124 -2 7 -7 2 -11 -10z"/>
<path d="M3994 3770 c41 -23 114 -34 135 -20 19 11 4 17 -64 24 -33 4 -71 9
-85 12 -19 4 -15 0 14 -16z"/>
<path d="M2405 3698 c8 -21 41 -38 93 -49 26 -5 57 -12 70 -14 23 -6 75 16 88
36 5 9 -5 10 -37 4 -97 -16 -126 -16 -150 4 -33 25 -71 37 -64 19z"/>
<path d="M4107 3637 c-32 -17 -74 -30 -96 -31 -22 0 -37 -5 -34 -10 8 -12 139
-2 156 12 9 8 37 9 78 6 41 -4 75 -1 94 6 l30 13 -25 6 c-14 4 -43 4 -65 0
-67 -13 -77 -12 -70 11 8 25 4 24 -68 -13z"/>
<path d="M2430 3605 c20 -19 38 -26 82 -29 37 -3 63 1 75 9 28 20 9 28 -32 14
-33 -12 -40 -12 -75 9 -22 12 -47 22 -57 22 -15 0 -14 -4 7 -25z"/>
<path d="M3618 3614 c25 -47 87 -79 134 -69 39 9 26 23 -30 31 -26 3 -62 18
-81 32 -27 20 -31 21 -23 6z"/>
<path d="M2792 3598 c-41 -21 -44 -21 -109 -6 -38 9 -70 14 -73 12 -2 -3 6
-14 20 -25 22 -17 35 -19 100 -14 61 5 79 10 100 31 30 30 18 30 -38 2z"/>
<path d="M4305 3559 c-76 -17 -150 -27 -175 -23 -23 4 -23 3 -6 -8 45 -26 250
2 231 32 -3 6 -7 9 -8 9 -1 -1 -20 -5 -42 -10z"/>
<path d="M3560 3556 c0 -10 66 -66 78 -66 28 0 8 32 -35 54 -33 17 -43 19 -43
12z"/>
<path d="M1462 3298 c3 -8 -24 -22 -76 -40 -134 -44 -380 -122 -392 -124 -6
-1 -36 -9 -65 -17 -56 -16 -96 -22 -214 -32 -38 -3 -81 -8 -95 -10 -24 -4 -59
-8 -174 -20 -27 -2 -51 -6 -53 -9 -9 -9 197 -6 267 4 146 20 540 113 784 186
83 24 166 44 185 45 20 0 45 4 56 9 39 16 -12 23 -101 13 -47 -5 -88 -5 -90
-1 -8 13 -36 9 -32 -4z"/>
<path d="M2700 3230 c-140 -41 -197 -49 -218 -28 -9 9 -12 9 -12 0 0 -7 12
-18 27 -25 l27 -12 -30 -6 c-17 -3 -38 0 -51 8 -20 12 -23 11 -23 -1 0 -8 10
-18 23 -22 22 -7 21 -7 -6 -17 -21 -7 -34 -5 -52 7 -28 19 -33 11 -10 -14 15
-16 14 -18 -10 -22 -14 -3 -30 1 -36 8 -6 8 -15 11 -21 8 -5 -3 -4 -12 3 -20
16 -20 7 -26 -26 -18 -20 5 -23 9 -13 15 7 5 9 9 3 9 -16 2 -196 -2 -239 -4
-22 -1 -78 3 -125 10 -120 17 -274 12 -336 -10 -70 -25 -76 -35 -13 -24 65 13
389 15 513 4 53 -5 107 -4 132 2 32 7 45 7 53 -3 8 -10 7 -15 -7 -19 -49 -15
-169 -25 -345 -27 -65 0 -118 -4 -118 -8 0 -9 406 -6 460 3 58 11 144 44 256
99 105 52 214 96 299 121 83 25 83 24 55 25 -14 0 -86 -18 -160 -39z"/>
<path d="M2738 3177 c53 -70 77 -97 89 -97 7 0 13 -5 13 -11 0 -6 15 -28 33
-49 35 -43 63 -53 54 -20 -3 11 -4 20 -3 20 2 0 21 -26 43 -57 46 -65 80 -99
90 -90 10 11 -98 158 -134 183 -25 16 -31 6 -10 -15 7 -7 -4 -5 -26 5 -31 15
-38 24 -43 55 -5 32 -12 39 -61 62 -29 14 -50 20 -45 14z"/>
<path d="M2660 3146 c0 -23 18 -56 30 -56 17 0 11 36 -10 55 -19 17 -20 17
-20 1z"/>
<path d="M2736 3110 c8 -30 51 -90 65 -90 20 0 7 29 -31 71 -35 37 -40 40 -34
19z"/>
<path d="M2825 3051 c16 -53 62 -127 91 -146 18 -11 40 -35 50 -53 18 -33 63
-76 71 -68 3 2 -1 15 -7 28 -8 17 -3 14 22 -12 48 -50 69 -67 98 -75 23 -7 24
-7 10 10 -8 11 -10 16 -5 13 18 -10 232 -68 271 -74 22 -3 66 0 99 6 33 6 89
13 125 15 36 2 77 8 90 13 14 5 40 7 57 5 18 -3 41 -2 50 3 10 4 45 8 78 9 53
2 145 20 145 29 0 2 -45 3 -101 4 -56 0 -103 3 -106 5 -2 3 -16 -1 -30 -8 -15
-8 -29 -12 -32 -11 -11 7 -151 18 -151 12 0 -3 15 -13 33 -21 31 -15 31 -15
-33 -10 -36 3 -92 12 -125 20 -33 8 -64 14 -70 14 -13 0 41 -30 85 -46 32 -12
27 -12 -55 -7 -179 10 -226 19 -274 51 -27 18 -151 83 -158 83 -2 0 -1 -5 2
-10 3 -6 -14 3 -38 20 -45 30 -101 91 -164 178 -22 30 -32 38 -28 23z"/>
<path d="M400 3003 c4 -15 21 -66 35 -113 27 -85 108 -252 131 -271 7 -6 36
-11 64 -12 43 -1 64 7 138 46 204 110 319 159 562 241 140 47 269 88 285 91
17 2 62 12 100 20 l70 15 -60 -7 c-74 -8 -89 -8 -195 0 -80 6 -83 6 -48 -8 20
-7 48 -12 62 -11 33 4 33 -2 -1 -15 -18 -7 -35 -7 -52 0 -14 6 -42 12 -61 15
-32 4 -34 4 -16 -10 11 -8 34 -14 50 -15 l31 -1 -32 -9 c-25 -7 -39 -6 -58 7
-23 15 -24 15 -31 -10 -5 -20 -9 -24 -19 -16 -9 8 -14 6 -19 -6 -4 -9 -9 -14
-13 -11 -3 3 -19 -1 -35 -9 -17 -9 -32 -13 -36 -10 -3 3 -2 6 3 6 4 0 2 7 -5
15 -11 13 -10 18 6 30 17 12 21 12 32 -3 11 -15 14 -15 22 -2 23 38 -61 48
-117 14 -43 -27 -54 -44 -42 -65 12 -24 29 -24 29 -1 0 22 29 64 30 43 0 -8 7
-22 15 -31 14 -15 10 -18 -43 -34 -121 -38 -261 -98 -357 -154 -133 -77 -160
-87 -221 -83 -30 2 -104 130 -168 293 -14 36 -26 71 -26 77 0 5 -4 12 -10 16
-6 3 -6 -5 0 -22z"/>
<path d="M4284 3016 c-15 -38 40 -50 71 -16 10 11 13 20 7 20 -6 0 -14 -5 -17
-11 -5 -7 -15 -5 -31 6 -21 14 -25 14 -30 1z"/>
<path d="M3121 2873 c24 -31 52 -53 66 -53 29 0 10 31 -34 54 -41 21 -49 20
-32 -1z"/>
<path d="M1005 2854 c-33 -14 -100 -37 -148 -50 -49 -14 -110 -36 -135 -50
l-47 -25 49 6 c27 3 86 21 130 41 45 20 100 40 123 45 23 4 64 19 90 33 40 21
44 25 23 25 -14 0 -52 -11 -85 -25z"/>
<path d="M4317 2853 c-10 -9 -9 -23 1 -23 5 0 9 7 9 15 0 17 -1 18 -10 8z"/>
<path d="M4256 2780 c-35 -135 -104 -242 -200 -312 -41 -29 -36 -36 11 -16
104 45 172 155 203 330 15 83 7 82 -14 -2z"/>
<path d="M3230 2812 c0 -9 90 -68 117 -76 24 -8 40 8 21 21 -26 16 -138 61
-138 55z"/>
<path d="M3106 2709 c4 -8 101 -46 139 -56 49 -12 76 -15 92 -8 15 6 12 10
-17 20 -19 8 -49 14 -65 14 -17 1 -36 6 -43 13 -13 13 -114 29 -106 17z"/>
<path d="M3025 2575 c5 -37 14 -54 48 -97 18 -22 62 -39 82 -31 12 4 8 10 -17
25 -51 31 -79 60 -100 103 l-19 40 6 -40z"/>
<path d="M3065 2035 c13 -80 55 -175 76 -175 11 0 1 49 -13 67 -5 6 -23 42
-39 80 -26 59 -29 63 -24 28z"/>
<path d="M3265 1035 c19 -112 26 -138 48 -177 21 -39 56 -64 42 -31 -4 10 -25
62 -45 115 -49 124 -51 129 -45 93z"/>
</g>
</svg>
