<?xml version="1.0" encoding="utf-8"?>
<!-- Generator: Adobe Illustrator 27.9.0, SVG Export Plug-In . SVG Version: 6.00 Build 0)  -->
<svg version="1.0" id="Layer_1" xmlns="http://www.w3.org/2000/svg" xmlns:xlink="http://www.w3.org/1999/xlink" x="0px" y="0px"
	 viewBox="0 0 704 974.9" style="enable-background:new 0 0 704 974.9;" xml:space="preserve">
<style type="text/css">
	.st0{fill:#FFFFFF;}
	.st1{fill:#D3A115;}
</style>
<image style="display:none;overflow:visible;" width="704" height="975" xlink:href="1.png" >
</image>
<polygon class="st0" points="703.4,686.2 431.7,965.8 266.8,965.8 0,686.2 0,974.9 703.4,974.9 "/>
<g>
	<path class="st0" d="M677,27v661.6L427,948H276.1L27,687.6V27H677 M704,0H0v698.4L264.5,975h173.9L704,699.5V0L704,0z"/>
</g>
<g>
	<path class="st1" d="M689.6,14.4v679.3L432.4,960.6H270.7l-256.3-268V14.4H689.6 M704,0H0v698.4L264.5,975h173.9L704,699.5V0L704,0
		z"/>
</g>
<g>
	<path d="M662.8,43.2v638.1L425.7,931.8H277.4L41.2,680.3V43.2H662.8 M677.2,28.8H26.8V686l244.4,260.3h160.7L677.2,687V28.8
		L677.2,28.8z"/>
</g>
</svg>
